<?xml version="1.0" standalone="no"?>
<!DOCTYPE svg PUBLIC "-//W3C//DTD SVG 20010904//EN"
 "http://www.w3.org/TR/2001/REC-SVG-20010904/DTD/svg10.dtd">
<svg version="1.0" xmlns="http://www.w3.org/2000/svg"
 width="821.000000pt" height="425.000000pt" viewBox="0 0 821.000000 425.000000"
 preserveAspectRatio="xMidYMid meet">

<g transform="translate(0.000000,425.000000) scale(0.100000,-0.100000)"
fill="#000000" stroke="none">
<path d="M1744 2892 c-104 -60 -207 -120 -229 -134 -22 -14 -97 -57 -167 -97
l-128 -72 0 -422 0 -422 188 -108 c103 -59 233 -134 289 -166 56 -33 135 -78
175 -99 l73 -40 185 107 c411 237 525 305 530 312 3 5 7 193 7 418 2 310 -1
412 -10 419 -7 6 -55 35 -107 64 -52 30 -209 121 -347 201 -139 81 -256 147
-261 147 -5 0 -94 -49 -198 -108z m247 11 c27 -16 49 -31 49 -34 0 -7 -118
-77 -430 -257 l-215 -123 -5 -302 -5 -301 -40 -28 c-22 -15 -46 -27 -53 -28
-10 0 -12 76 -10 362 l3 362 325 188 c179 103 327 187 329 187 1 1 25 -11 52
-26z m356 -205 c117 -67 213 -125 213 -129 0 -8 -87 -59 -102 -59 -5 0 -83 43
-173 95 -90 52 -166 95 -168 95 -6 0 -552 -310 -607 -345 -22 -14 -44 -25 -50
-25 -6 0 -10 26 -10 59 l0 59 93 55 c50 30 189 109 307 177 118 67 224 129
235 136 11 7 26 11 34 8 8 -3 110 -59 228 -126z m-193 -87 c17 -10 86 -51 154
-91 l122 -72 0 -59 c0 -32 -4 -59 -8 -59 -5 0 -75 39 -156 86 -124 73 -151 85
-169 76 -12 -5 -89 -49 -172 -97 -82 -48 -166 -96 -185 -107 -19 -11 -39 -24
-45 -28 -24 -18 -228 -129 -237 -130 -5 0 -8 27 -8 59 l0 60 228 131 c125 72
234 135 242 140 48 32 186 110 194 110 5 0 23 -8 40 -19z m446 -466 l0 -364
-67 -39 c-357 -204 -585 -332 -594 -332 -6 0 -31 12 -56 27 -43 25 -44 27 -27
41 29 21 259 156 456 267 l177 100 3 304 3 305 45 27 c25 15 48 28 53 28 4 1
7 -163 7 -364z m-322 190 c56 -32 102 -62 102 -67 0 -4 -21 -21 -46 -37 l-47
-29 -131 76 c-72 41 -135 78 -140 83 -4 4 16 21 45 38 53 30 54 30 84 13 16
-10 76 -44 133 -77z m-287 -32 c27 -14 49 -30 49 -34 0 -9 -256 -159 -272
-159 -23 0 -99 45 -96 57 2 10 248 160 267 162 2 1 25 -11 52 -26z m173 -99
c26 -14 45 -31 43 -38 -4 -12 -245 -155 -263 -156 -15 0 -104 50 -104 59 0 6
259 160 271 161 4 0 28 -12 53 -26z m266 -56 l-1 -63 -162 -92 c-89 -51 -238
-137 -330 -192 l-169 -99 -140 80 c-78 44 -150 85 -160 91 -14 9 -18 24 -18
69 0 37 4 58 11 58 7 0 75 -37 152 -82 78 -45 146 -81 152 -81 10 0 290 160
560 319 50 29 93 53 98 54 4 0 7 -28 7 -62z m-699 -95 c71 -42 128 -81 126
-86 -1 -5 -23 -20 -48 -34 l-45 -26 -137 78 c-75 42 -137 79 -137 81 0 7 93
64 103 64 5 0 67 -35 138 -77z m699 -110 l0 -58 -273 -157 c-149 -86 -300
-171 -333 -189 l-61 -33 -218 124 c-120 69 -218 130 -218 135 0 5 20 22 45 36
l45 27 54 -28 c30 -15 108 -59 174 -98 l120 -70 50 28 c28 16 172 98 320 184
149 85 276 155 283 155 8 1 12 -17 12 -56z"/>
<path d="M3152 2469 c-107 -21 -204 -96 -255 -198 -115 -229 13 -502 257 -551
96 -20 205 7 275 66 l41 36 0 132 c0 120 2 136 21 160 l20 26 -81 0 -81 0 15
-22 c13 -18 16 -54 16 -179 l0 -157 -42 -17 c-59 -24 -148 -22 -204 5 -139 68
-209 270 -155 448 39 128 145 213 269 213 75 1 121 -20 169 -75 31 -35 35 -37
29 -16 -3 14 -6 49 -6 78 0 50 -1 52 -16 37 -11 -10 -25 -14 -38 -10 -48 14
-152 35 -171 34 -11 -1 -39 -5 -63 -10z"/>
<path d="M3843 2466 c24 -19 21 -53 -13 -148 -16 -46 -66 -191 -110 -323 -61
-180 -87 -246 -106 -262 l-25 -23 61 0 c57 0 60 1 48 20 -10 16 -8 33 13 97
l25 78 174 0 173 0 23 -65 c26 -74 29 -101 12 -118 -9 -9 8 -12 77 -12 l89 0
-22 22 c-15 16 -55 121 -123 328 -55 168 -110 331 -122 363 l-22 57 -85 0
c-73 -1 -82 -3 -67 -14z m137 -238 c35 -106 69 -212 76 -235 l13 -43 -159 0
-159 0 13 43 c45 146 141 427 146 427 3 0 35 -87 70 -192z"/>
<path d="M4377 2473 c-4 -3 -7 -21 -7 -40 l0 -33 25 16 c17 11 55 18 110 21
l85 5 0 -344 c0 -295 -2 -347 -16 -366 l-15 -22 82 0 c79 0 81 1 65 18 -15 17
-16 53 -14 363 l3 344 60 2 c83 3 131 -12 150 -45 9 -15 14 -19 11 -9 -3 10
-6 36 -6 58 l0 39 -263 0 c-145 0 -267 -3 -270 -7z"/>
<path d="M5004 2458 c14 -19 16 -71 16 -363 0 -292 -2 -344 -16 -363 l-15 -22
82 0 c79 0 81 1 66 18 -15 16 -17 45 -17 195 l0 177 190 0 190 0 0 -179 c0
-150 -3 -182 -16 -195 -14 -15 -7 -16 72 -16 78 0 86 2 68 14 -18 14 -19 31
-22 357 -3 333 -2 344 18 371 l21 28 -87 0 c-84 0 -86 -1 -71 -18 14 -16 17
-43 17 -170 l0 -152 -190 0 -190 0 0 150 c0 141 1 150 22 170 l22 20 -88 0
-87 0 15 -22z"/>
<path d="M5729 2454 c20 -26 21 -38 21 -363 0 -288 -2 -340 -16 -359 l-15 -22
245 0 c234 0 246 1 246 19 0 10 3 34 6 52 5 30 4 31 -7 14 -25 -42 -37 -45
-201 -45 l-158 0 0 175 0 175 116 0 c125 0 146 -6 168 -48 14 -25 15 -21 15
68 0 88 -1 93 -13 64 -8 -17 -21 -34 -31 -38 -9 -3 -70 -6 -135 -6 l-119 0 -3
145 c-2 114 0 146 10 150 27 10 268 4 302 -8 19 -7 41 -23 48 -37 13 -24 13
-23 8 15 -3 22 -6 48 -6 58 0 16 -19 17 -251 17 l-250 0 20 -26z"/>
<path d="M6304 2459 c14 -21 16 -66 16 -367 0 -217 -4 -350 -10 -363 -10 -18
-7 -19 64 -19 l75 0 -15 28 c-10 19 -14 63 -14 153 l0 127 31 6 c70 14 70 14
177 -137 55 -79 108 -150 117 -157 10 -8 47 -16 83 -18 l67 -5 -32 27 c-18 15
-53 57 -79 94 -26 37 -71 99 -101 139 -29 39 -53 76 -53 82 0 6 30 25 67 41
110 50 154 104 155 189 0 80 -38 132 -127 173 -45 21 -68 23 -244 26 l-193 4
16 -23z m237 -28 c143 -15 199 -58 199 -151 0 -57 -26 -107 -73 -141 -44 -32
-140 -65 -203 -71 l-39 -3 -3 175 c-1 96 0 180 2 187 6 15 6 15 117 4z"/>
</g>
</svg>
